<svg width="363" height="123" viewBox="0 0 363 123" fill="none" xmlns="http://www.w3.org/2000/svg">
<g filter="url(#filter0_ddd)">
<g filter="url(#filter1_b)">
<path d="M57.1748 70H63.2539V48.8086H68.332V44.1211H63.1318V41.8262C63.1318 39.7266 64.2305 38.6279 66.5986 38.6279C67.2578 38.6279 67.9414 38.6768 68.4297 38.75V34.502C67.6729 34.3555 66.3789 34.2578 65.1826 34.2578C59.5674 34.2578 57.1748 36.6016 57.1748 41.6553V44.1211H53.6348V48.8086H57.1748V70Z" fill="white"/>
<rect x="37" y="28" width="49" height="49" rx="4.5" stroke="#FDFDFD"/>
</g>
<path d="M99.4297 70H106.803V56.1328H121.134V50.2979H106.803V40.8496H122.501V34.7705H99.4297V70ZM133.926 70.415C137.368 70.415 140.151 68.7793 141.641 66.0938H141.787V70H148.916V52.0557C148.916 46.7822 144.546 43.291 137.783 43.291C130.874 43.291 126.724 46.7578 126.333 51.5918L126.309 51.8848H132.827L132.876 51.665C133.218 49.9805 134.829 48.7354 137.49 48.7354C140.273 48.7354 141.787 50.1758 141.787 52.4951V54.1064L135.317 54.4971C128.823 54.9121 125.137 57.6953 125.137 62.4561V62.5049C125.137 67.1191 128.677 70.415 133.926 70.415ZM132.192 62.1387V62.0898C132.192 60.2344 133.633 59.0625 136.392 58.8916L141.787 58.5498V60.4297C141.787 63.1641 139.443 65.2148 136.245 65.2148C133.779 65.2148 132.192 64.0674 132.192 62.1387ZM166.493 70.5371C173.476 70.5371 177.992 66.1914 178.334 60.4785V60.332H171.693L171.669 60.5518C171.181 63.1885 169.398 64.9463 166.542 64.9463C163.026 64.9463 160.829 62.041 160.829 56.9141V56.8896C160.829 51.8848 163.026 48.8818 166.518 48.8818C169.472 48.8818 171.205 50.7861 171.645 53.2764L171.693 53.4961H178.31V53.3252C178.041 47.6611 173.524 43.291 166.42 43.291C158.583 43.291 153.578 48.4912 153.578 56.8652V56.8896C153.578 65.3369 158.51 70.5371 166.493 70.5371ZM194.69 70.5371C202.161 70.5371 205.774 66.1182 206.58 62.2607L206.653 61.9922H200.11L200.062 62.1387C199.549 63.6035 197.767 65.2148 194.837 65.2148C191.199 65.2148 188.929 62.7734 188.855 58.5986H206.873V56.4014C206.873 48.4912 202.063 43.291 194.397 43.291C186.731 43.291 181.824 48.6133 181.824 56.9385V56.9629C181.824 65.3369 186.683 70.5371 194.69 70.5371ZM194.52 48.6133C197.474 48.6133 199.598 50.4932 200.037 54.1064H188.929C189.393 50.5664 191.59 48.6133 194.52 48.6133ZM227.062 70.5371C233.654 70.5371 237.731 65.4102 237.731 56.9141V56.8896C237.731 48.3691 233.654 43.291 227.087 43.291C223.352 43.291 220.446 45.1953 219.006 48.3691H218.859V34.7705H211.73V70H218.859V65.5322H219.006C220.422 68.6328 223.303 70.5371 227.062 70.5371ZM224.694 64.6289C221.228 64.6289 218.859 61.6504 218.859 56.9141V56.8896C218.859 52.1777 221.252 49.1992 224.694 49.1992C228.234 49.1992 230.48 52.1045 230.48 56.8896V56.9141C230.48 61.6748 228.234 64.6289 224.694 64.6289ZM254.405 70.5371C262.315 70.5371 267.369 65.459 267.369 56.9141V56.8652C267.369 48.3936 262.218 43.291 254.381 43.291C246.568 43.291 241.441 48.4424 241.441 56.8652V56.9141C241.441 65.4346 246.446 70.5371 254.405 70.5371ZM254.43 64.9463C250.914 64.9463 248.692 62.041 248.692 56.9141V56.8652C248.692 51.8115 250.938 48.8818 254.381 48.8818C257.848 48.8818 260.118 51.8115 260.118 56.8652V56.9141C260.118 62.0166 257.896 64.9463 254.43 64.9463ZM284.067 70.5371C291.978 70.5371 297.031 65.459 297.031 56.9141V56.8652C297.031 48.3936 291.88 43.291 284.043 43.291C276.23 43.291 271.104 48.4424 271.104 56.8652V56.9141C271.104 65.4346 276.108 70.5371 284.067 70.5371ZM284.092 64.9463C280.576 64.9463 278.354 62.041 278.354 56.9141V56.8652C278.354 51.8115 280.601 48.8818 284.043 48.8818C287.51 48.8818 289.78 51.8115 289.78 56.8652V56.9141C289.78 62.0166 287.559 64.9463 284.092 64.9463ZM301.962 70H309.091V61.333L310.922 59.3066L318.417 70H326.645L316.269 55.083L326.156 43.8281H318.075L309.237 54.3018H309.091V34.7705H301.962V70Z" fill="white"/>
</g>
<defs>
<filter id="filter0_ddd" x="-15.5" y="-15" width="394" height="153" filterUnits="userSpaceOnUse" color-interpolation-filters="sRGB">
<feFlood flood-opacity="0" result="BackgroundImageFix"/>
<feColorMatrix in="SourceAlpha" type="matrix" values="0 0 0 0 0 0 0 0 0 0 0 0 0 0 0 0 0 0 127 0" result="hardAlpha"/>
<feMorphology radius="4" operator="erode" in="SourceAlpha" result="effect1_dropShadow"/>
<feOffset dy="3"/>
<feGaussianBlur stdDeviation="3"/>
<feColorMatrix type="matrix" values="0 0 0 0 0 0 0 0 0 0 0 0 0 0 0 0 0 0 0.12 0"/>
<feBlend mode="normal" in2="BackgroundImageFix" result="effect1_dropShadow"/>
<feColorMatrix in="SourceAlpha" type="matrix" values="0 0 0 0 0 0 0 0 0 0 0 0 0 0 0 0 0 0 127 0" result="hardAlpha"/>
<feOffset dy="6"/>
<feGaussianBlur stdDeviation="8"/>
<feColorMatrix type="matrix" values="0 0 0 0 0 0 0 0 0 0 0 0 0 0 0 0 0 0 0.08 0"/>
<feBlend mode="normal" in2="effect1_dropShadow" result="effect2_dropShadow"/>
<feColorMatrix in="SourceAlpha" type="matrix" values="0 0 0 0 0 0 0 0 0 0 0 0 0 0 0 0 0 0 127 0" result="hardAlpha"/>
<feMorphology radius="8" operator="dilate" in="SourceAlpha" result="effect3_dropShadow"/>
<feOffset dy="9"/>
<feGaussianBlur stdDeviation="14"/>
<feColorMatrix type="matrix" values="0 0 0 0 0 0 0 0 0 0 0 0 0 0 0 0 0 0 0.05 0"/>
<feBlend mode="normal" in2="effect2_dropShadow" result="effect3_dropShadow"/>
<feBlend mode="normal" in="SourceGraphic" in2="effect3_dropShadow" result="shape"/>
</filter>
<filter id="filter1_b" x="32.5" y="23.5" width="58" height="58" filterUnits="userSpaceOnUse" color-interpolation-filters="sRGB">
<feFlood flood-opacity="0" result="BackgroundImageFix"/>
<feGaussianBlur in="BackgroundImage" stdDeviation="2"/>
<feComposite in2="SourceAlpha" operator="in" result="effect1_backgroundBlur"/>
<feBlend mode="normal" in="SourceGraphic" in2="effect1_backgroundBlur" result="shape"/>
</filter>
</defs>
</svg>
