<svg width="391" height="108" viewBox="0 0 391 108" fill="none" xmlns="http://www.w3.org/2000/svg">
<g filter="url(#filter0_d)">
<path d="M99.12 9.08C103.52 9.08 105.72 10.88 105.72 14.48C105.72 15.6 105.48 17 105 18.68L102.12 28.4C101.24 31.36 100.16 33.44 98.88 34.64C97.6 35.84 95.76 36.44 93.36 36.44C91.36 36.44 89.8 35.92 88.68 34.88C87.64 33.84 86.64 32.2 85.68 29.96L83.64 25.04C83 23.52 82.32 22.48 81.6 21.92C80.88 21.36 79.76 21.08 78.24 21.08H75.48L60.24 74.72C60 75.76 59.88 76.68 59.88 77.48C59.88 78.44 60 79.24 60.24 79.88C60.56 80.52 61 81.2 61.56 81.92C62.28 83.04 62.64 83.96 62.64 84.68C62.64 84.84 62.56 85.24 62.4 85.88C62 86.92 61.2 87.68 60 88.16C58.88 88.64 57.24 88.88 55.08 88.88H26.88C25.2 88.88 23.88 88.6 22.92 88.04C22.04 87.48 21.6 86.68 21.6 85.64C21.6 85.16 21.72 84.68 21.96 84.2C22.28 83.48 22.64 82.96 23.04 82.64C23.52 82.24 24.2 81.76 25.08 81.2C26.28 80.48 27.28 79.68 28.08 78.8C28.88 77.92 29.56 76.56 30.12 74.72L45.24 21.08H42.48C40.72 21.08 39.28 21.36 38.16 21.92C37.04 22.48 35.84 23.52 34.56 25.04L30.6 29.96C28.76 32.12 26.96 33.76 25.2 34.88C23.52 35.92 21.68 36.44 19.68 36.44C17.84 36.44 16.4 35.96 15.36 35C14.32 34.04 13.8 32.72 13.8 31.04C13.8 30.24 13.92 29.36 14.16 28.4L17.28 17.48C17.92 15.24 18.64 13.56 19.44 12.44C20.24 11.24 21.36 10.4 22.8 9.92C24.32 9.36 26.44 9.08 29.16 9.08H99.12ZM152.975 25.52C157.455 25.52 161.015 26.88 163.655 29.6C166.375 32.32 167.735 35.68 167.735 39.68C167.735 41.2 167.575 42.6 167.255 43.88C166.455 47.16 164.935 49.68 162.695 51.44C160.455 53.2 157.775 54.08 154.655 54.08C151.615 54.08 149.295 53.36 147.695 51.92C146.175 50.48 144.815 48.56 143.615 46.16C142.975 44.8 142.375 43.8 141.815 43.16C141.255 42.52 140.615 42.2 139.895 42.2C139.095 42.2 138.375 42.52 137.735 43.16C137.175 43.8 136.655 44.92 136.175 46.52L126.935 76.52C126.775 76.92 126.695 77.52 126.695 78.32C126.695 79.36 126.975 80.24 127.535 80.96C128.175 81.6 129.015 82.24 130.055 82.88C131.015 83.52 131.655 84.04 131.975 84.44C132.295 84.84 132.415 85.36 132.335 86C132.175 87.04 131.575 87.8 130.535 88.28C129.575 88.76 127.895 89 125.495 89H94.7747C92.6947 89 91.2147 88.68 90.3347 88.04C89.3747 87.32 89.0147 86.4 89.2547 85.28C89.5747 84.32 90.4147 83.48 91.7747 82.76C92.9747 82.12 93.9747 81.36 94.7747 80.48C95.5747 79.6 96.2547 78.2 96.8147 76.28L107.495 41.6C107.655 41.2 107.735 40.64 107.735 39.92C107.735 39.04 107.535 38.36 107.135 37.88C106.815 37.4 106.255 36.8 105.455 36.08C104.655 35.44 104.095 34.88 103.775 34.4C103.455 33.92 103.415 33.28 103.655 32.48C104.135 30.64 106.655 29.04 111.215 27.68C115.775 26.24 120.535 25.52 125.495 25.52C128.775 25.52 131.495 26.28 133.655 27.8C135.815 29.24 137.215 31.32 137.855 34.04C141.695 28.36 146.735 25.52 152.975 25.52ZM236.585 72.44C236.425 73.08 236.345 73.56 236.345 73.88C236.345 74.44 236.465 74.88 236.705 75.2C237.025 75.52 237.425 75.68 237.905 75.68C238.865 75.68 239.665 75.28 240.305 74.48C241.025 73.6 241.505 73.16 241.745 73.16C242.145 73.16 242.465 73.44 242.705 74C243.025 74.48 243.185 75.08 243.185 75.8C243.265 78.04 242.465 80.28 240.785 82.52C239.105 84.68 236.745 86.48 233.705 87.92C230.665 89.36 227.265 90.08 223.505 90.08C218.785 90.08 215.025 89.12 212.225 87.2C209.425 85.28 207.625 82.76 206.825 79.64C203.945 82.84 200.745 85.28 197.225 86.96C193.785 88.56 190.265 89.36 186.665 89.36C181.065 89.36 176.345 88 172.505 85.28C168.745 82.48 166.865 78.6 166.865 73.64C166.865 71.4 167.265 69.08 168.065 66.68L175.745 41.6C175.985 40.88 176.105 40.28 176.105 39.8C176.105 38.92 175.905 38.24 175.505 37.76C175.105 37.2 174.505 36.64 173.705 36.08C172.905 35.44 172.345 34.88 172.025 34.4C171.705 33.92 171.665 33.28 171.905 32.48C172.385 30.64 174.905 29.04 179.465 27.68C184.025 26.24 188.785 25.52 193.745 25.52C198.385 25.52 201.785 26.4 203.945 28.16C206.105 29.92 207.185 32.32 207.185 35.36C207.185 37.2 206.905 38.96 206.345 40.64L198.785 65.6C198.465 66.48 198.305 67.32 198.305 68.12C198.305 69.24 198.625 70.08 199.265 70.64C199.905 71.2 200.745 71.48 201.785 71.48C203.305 71.48 204.545 71.04 205.505 70.16C206.465 69.28 207.425 67.8 208.385 65.72L215.705 41.6C215.945 40.88 216.065 40.28 216.065 39.8C216.065 38.92 215.865 38.24 215.465 37.76C215.065 37.2 214.505 36.64 213.785 36.08C212.985 35.44 212.425 34.88 212.105 34.4C211.785 33.92 211.745 33.28 211.985 32.48C212.385 30.64 214.865 29.04 219.425 27.68C223.985 26.24 228.745 25.52 233.705 25.52C238.345 25.52 241.745 26.4 243.905 28.16C246.145 29.92 247.265 32.28 247.265 35.24C247.265 36.76 246.945 38.56 246.305 40.64L236.585 72.44ZM287.05 24.44C293.69 24.44 299.41 25.04 304.21 26.24C309.09 27.44 312.81 29.12 315.37 31.28C318.01 33.44 319.33 35.88 319.33 38.6C319.33 41.4 318.21 43.68 315.97 45.44C313.81 47.2 310.77 48.08 306.85 48.08C302.85 48.08 299.45 47.08 296.65 45.08C293.93 43.08 292.57 40.56 292.57 37.52C292.57 36.48 292.73 35.48 293.05 34.52C291.61 34.12 290.33 33.92 289.21 33.92C287.21 33.92 285.53 34.4 284.17 35.36C282.89 36.32 282.29 37.68 282.37 39.44C282.37 41.52 283.41 43.28 285.49 44.72C287.57 46.16 290.93 47.96 295.57 50.12C299.57 51.88 302.85 53.52 305.41 55.04C308.05 56.48 310.25 58.32 312.01 60.56C313.85 62.8 314.77 65.44 314.77 68.48C314.77 69.12 314.61 70.32 314.29 72.08C313.01 77.44 309.45 81.68 303.61 84.8C297.77 87.92 290.09 89.48 280.57 89.48C269.85 89.48 261.33 88.04 255.01 85.16C248.77 82.28 245.65 78.32 245.65 73.28C245.65 69.84 246.69 67.24 248.77 65.48C250.85 63.72 253.61 62.84 257.05 62.84C261.05 62.84 264.45 64.08 267.25 66.56C270.13 69.04 271.57 72.2 271.57 76.04C271.57 77.08 271.45 78.16 271.21 79.28C273.13 79.76 274.97 80 276.73 80C278.81 80 280.53 79.44 281.89 78.32C283.25 77.2 283.93 75.64 283.93 73.64C283.85 71.8 282.93 70.24 281.17 68.96C279.41 67.6 276.61 66 272.77 64.16C269.17 62.48 266.21 60.92 263.89 59.48C261.57 57.96 259.57 56.08 257.89 53.84C256.29 51.6 255.49 48.96 255.49 45.92C255.49 39.36 258.21 34.16 263.65 30.32C269.17 26.4 276.97 24.44 287.05 24.44ZM372.343 27.08C373.863 27.08 375.023 27.4 375.823 28.04C376.703 28.68 377.143 29.56 377.143 30.68C377.143 31 377.063 31.56 376.903 32.36C375.863 35.88 373.463 37.64 369.703 37.64H362.743L353.743 67.28C353.343 68.48 353.143 69.72 353.143 71C353.143 72.44 353.543 73.44 354.343 74C355.143 74.56 356.263 74.84 357.703 74.84C358.983 74.84 360.583 74.68 362.503 74.36C363.463 74.12 364.303 74 365.023 74C365.583 74 365.983 74.2 366.223 74.6C366.543 74.92 366.703 75.36 366.703 75.92C366.783 77.52 365.583 79.48 363.103 81.8C360.703 84.04 357.423 86 353.263 87.68C349.103 89.28 344.503 90.08 339.463 90.08C334.023 90.08 329.663 88.84 326.383 86.36C323.103 83.88 321.463 80.48 321.463 76.16C321.463 74.16 321.783 72.24 322.423 70.4L330.103 46.64C330.503 45.28 330.703 44.2 330.703 43.4C330.703 41.8 330.303 40.44 329.503 39.32C328.783 38.2 327.743 37.04 326.383 35.84C325.183 34.72 324.343 33.8 323.863 33.08C323.383 32.28 323.263 31.36 323.503 30.32C323.823 29.28 324.503 28.48 325.543 27.92C326.583 27.36 328.223 27.08 330.463 27.08H337.183L344.743 19.52C347.383 16.88 349.783 15.04 351.943 14C354.183 12.96 357.063 12.44 360.583 12.44C365.623 12.44 368.143 14.36 368.143 18.2C368.143 19.4 367.983 20.52 367.663 21.56L365.983 27.08H372.343Z" fill="#FFC000"/>
<path d="M105 18.68L109.794 20.1004L109.801 20.0771L109.808 20.0536L105 18.68ZM102.12 28.4L106.913 29.8249L106.914 29.8204L102.12 28.4ZM98.88 34.64L95.4603 30.9923V30.9923L98.88 34.64ZM88.68 34.88L85.1445 38.4155L85.2099 38.481L85.2777 38.544L88.68 34.88ZM85.68 29.96L81.0613 31.8751L81.0726 31.9024L81.0843 31.9296L85.68 29.96ZM83.64 25.04L88.2587 23.1249L88.2535 23.1123L88.2482 23.0997L83.64 25.04ZM81.6 21.92L78.5303 25.8668L78.5303 25.8668L81.6 21.92ZM75.48 21.08V16.08H71.7027L70.6704 19.7135L75.48 21.08ZM60.24 74.72L55.4304 73.3535L55.3962 73.4738L55.368 73.5957L60.24 74.72ZM60.24 79.88L55.5584 81.6356L55.6505 81.8813L55.7679 82.1161L60.24 79.88ZM61.56 81.92L65.7659 79.2162L65.6445 79.0274L65.5068 78.8503L61.56 81.92ZM62.4 85.88L67.0667 87.6749L67.1765 87.3894L67.2507 87.0927L62.4 85.88ZM60 88.16L58.143 83.5176L58.0864 83.5403L58.0304 83.5643L60 88.16ZM22.92 88.04L20.2356 92.2583L20.3172 92.3102L20.4006 92.3589L22.92 88.04ZM21.96 84.2L26.4321 86.4361L26.4829 86.3345L26.5291 86.2307L21.96 84.2ZM23.04 82.64L26.1635 86.5443L26.2025 86.5131L26.2409 86.4811L23.04 82.64ZM25.08 81.2L22.5075 76.9125L22.4511 76.9464L22.3956 76.9817L25.08 81.2ZM28.08 78.8L24.3803 75.4366H24.3803L28.08 78.8ZM30.12 74.72L34.9034 76.1758L34.9184 76.1263L34.9325 76.0765L30.12 74.72ZM45.24 21.08L50.0525 22.4365L51.8442 16.08H45.24V21.08ZM38.16 21.92L40.3961 26.3921L40.3961 26.3921L38.16 21.92ZM34.56 25.04L30.7354 21.8193L30.6997 21.8617L30.6649 21.9049L34.56 25.04ZM30.6 29.96L34.4062 33.2023L34.4514 33.1493L34.4951 33.095L30.6 29.96ZM25.2 34.88L27.8318 39.1313L27.8582 39.115L27.8844 39.0983L25.2 34.88ZM15.36 35L18.7514 31.326H18.7514L15.36 35ZM14.16 28.4L9.35238 27.0264L9.32949 27.1065L9.30929 27.1873L14.16 28.4ZM17.28 17.48L12.4724 16.1064L17.28 17.48ZM19.44 12.44L23.5087 15.3462L23.5555 15.2806L23.6003 15.2135L19.44 12.44ZM22.8 9.91999L24.3811 14.6634L24.4552 14.6387L24.5285 14.6117L22.8 9.91999ZM99.12 14.08C99.8955 14.08 100.398 14.1611 100.692 14.2413C100.975 14.3185 100.996 14.375 100.904 14.2998C100.791 14.2073 100.709 14.0813 100.677 14.004C100.658 13.9573 100.72 14.0797 100.72 14.48H110.72C110.72 11.6148 109.796 8.65446 107.236 6.56021C104.869 4.62308 101.874 4.08 99.12 4.08V14.08ZM100.72 14.48C100.72 14.9518 100.608 15.8532 100.192 17.3064L109.808 20.0536C110.352 18.1468 110.72 16.2482 110.72 14.48H100.72ZM100.206 17.2596L97.326 26.9796L106.914 29.8204L109.794 20.1004L100.206 17.2596ZM97.3273 26.9752C96.5335 29.6453 95.7707 30.7013 95.4603 30.9923L102.3 38.2877C104.549 36.1787 105.947 33.0747 106.913 29.8249L97.3273 26.9752ZM95.4603 30.9923C95.4029 31.0462 94.9634 31.44 93.36 31.44V41.44C96.5566 41.44 99.7971 40.6338 102.3 38.2877L95.4603 30.9923ZM93.36 31.44C92.7853 31.44 92.4448 31.3645 92.2711 31.3066C92.1866 31.2784 92.1395 31.2538 92.1179 31.2413C92.0972 31.2292 92.0879 31.2213 92.0823 31.216L85.2777 38.544C87.5793 40.6811 90.4984 41.44 93.36 41.44V31.44ZM92.2155 31.3445C91.8255 30.9544 91.1281 29.9792 90.2757 27.9904L81.0843 31.9296C82.1519 34.4208 83.4546 36.7256 85.1445 38.4155L92.2155 31.3445ZM90.2987 28.0449L88.2587 23.1249L79.0213 26.9551L81.0613 31.8751L90.2987 28.0449ZM88.2482 23.0997C87.5051 21.3348 86.4152 19.3309 84.6697 17.9732L78.5303 25.8668C78.3283 25.7096 78.3256 25.6428 78.4652 25.8562C78.597 26.0579 78.7933 26.4138 79.0318 26.9803L88.2482 23.0997ZM84.6697 17.9732C82.656 16.407 80.1946 16.08 78.24 16.08V26.08C78.4685 26.08 78.6458 26.0906 78.7777 26.1046C78.9101 26.1187 78.9831 26.1346 79.0073 26.1407C79.0653 26.1552 78.8449 26.1115 78.5303 25.8668L84.6697 17.9732ZM78.24 16.08H75.48V26.08H78.24V16.08ZM70.6704 19.7135L55.4304 73.3535L65.0496 76.0865L80.2896 22.4465L70.6704 19.7135ZM55.368 73.5957C55.0693 74.8902 54.88 76.2 54.88 77.48H64.88C64.88 77.16 64.9307 76.6298 65.112 75.8443L55.368 73.5957ZM54.88 77.48C54.88 78.8156 55.0414 80.2571 55.5584 81.6356L64.9216 78.1244C64.9445 78.1854 64.9319 78.1732 64.9147 78.0583C64.8976 77.9441 64.88 77.7561 64.88 77.48H54.88ZM55.7679 82.1161C56.2688 83.1179 56.9033 84.0769 57.6132 84.9897L65.5068 78.8503C65.0968 78.3231 64.8512 77.9221 64.7121 77.6439L55.7679 82.1161ZM57.3541 84.6238C57.4693 84.8029 57.5535 84.9485 57.6136 85.0619C57.6741 85.1762 57.7033 85.2453 57.7138 85.272C57.7246 85.2997 57.7087 85.2651 57.6888 85.1745C57.6689 85.084 57.64 84.9141 57.64 84.68H67.64C67.64 82.4854 66.6279 80.5572 65.7659 79.2162L57.3541 84.6238ZM57.64 84.68C57.64 84.5879 57.6428 84.5099 57.646 84.45C57.6492 84.3894 57.6532 84.3383 57.6568 84.2986C57.6604 84.2585 57.6641 84.2252 57.6672 84.1996C57.6703 84.1738 57.6731 84.153 57.6753 84.1379C57.6794 84.1086 57.6823 84.0924 57.6823 84.0923C57.6825 84.0916 57.681 84.1001 57.6771 84.1194C57.6691 84.1594 57.6552 84.2249 57.633 84.3207C57.6112 84.4153 57.5836 84.5302 57.5493 84.6673L67.2507 87.0927C67.3398 86.7363 67.4209 86.3907 67.4829 86.0806C67.5184 85.9033 67.64 85.3154 67.64 84.68H57.64ZM57.7333 84.0851C57.7615 84.0116 57.8043 83.9247 57.8648 83.834C57.9253 83.7432 57.9919 83.6661 58.0563 83.605C58.1875 83.4804 58.2536 83.4734 58.143 83.5176L61.857 92.8024C64.1228 91.896 66.086 90.2249 67.0667 87.6749L57.7333 84.0851ZM58.0304 83.5643C57.8403 83.6458 57.0056 83.88 55.08 83.88V93.88C57.4744 93.88 59.9197 93.6342 61.9696 92.7557L58.0304 83.5643ZM55.08 83.88H26.88V93.88H55.08V83.88ZM26.88 83.88C26.3078 83.88 25.9155 83.8314 25.6675 83.7788C25.4211 83.7266 25.3727 83.6822 25.4394 83.7211L20.4006 92.3589C22.42 93.5368 24.7331 93.88 26.88 93.88V83.88ZM25.6044 83.8217C25.7708 83.9276 26.0718 84.1754 26.3111 84.6104C26.5507 85.0461 26.6 85.4362 26.6 85.64H16.6C16.6 88.3957 17.9186 90.7838 20.2356 92.2583L25.6044 83.8217ZM26.6 85.64C26.6 86.0238 26.4979 86.3046 26.4321 86.4361L17.4879 81.9639C16.9421 83.0554 16.6 84.2962 16.6 85.64H26.6ZM26.5291 86.2307C26.5917 86.0898 26.6158 86.0657 26.581 86.1161C26.5469 86.1653 26.4188 86.3401 26.1635 86.5443L19.9165 78.7356C18.6446 79.7532 17.877 81.0757 17.3909 82.1693L26.5291 86.2307ZM26.2409 86.4811C26.4848 86.2778 26.9625 85.9286 27.7644 85.4183L22.3956 76.9817C21.4375 77.5914 20.5552 78.2022 19.8391 78.7989L26.2409 86.4811ZM27.6525 85.4875C29.1994 84.5593 30.5991 83.462 31.7797 82.1634L24.3803 75.4366C23.9609 75.898 23.3606 76.4007 22.5075 76.9125L27.6525 85.4875ZM31.7797 82.1634C33.2924 80.4994 34.2456 78.3371 34.9034 76.1758L25.3366 73.2642C24.8744 74.7829 24.4676 75.3406 24.3803 75.4366L31.7797 82.1634ZM34.9325 76.0765L50.0525 22.4365L40.4275 19.7235L25.3075 73.3635L34.9325 76.0765ZM45.24 16.08H42.48V26.08H45.24V16.08ZM42.48 16.08C40.2391 16.08 37.9613 16.4292 35.9239 17.4479L40.3961 26.3921C40.5987 26.2908 41.2009 26.08 42.48 26.08V16.08ZM35.9239 17.4479C33.9421 18.4388 32.2257 20.0496 30.7354 21.8193L38.3846 28.2607C39.4543 26.9904 40.1379 26.5212 40.3961 26.3921L35.9239 17.4479ZM30.6649 21.9049L26.7049 26.825L34.4951 33.095L38.4551 28.175L30.6649 21.9049ZM26.7938 26.7177C25.1691 28.6249 23.7346 29.886 22.5156 30.6617L27.8844 39.0983C30.1854 37.634 32.3509 35.615 34.4062 33.2023L26.7938 26.7177ZM22.5682 30.6287C21.689 31.173 20.7622 31.44 19.68 31.44V41.44C22.5978 41.44 25.351 40.667 27.8318 39.1313L22.5682 30.6287ZM19.68 31.44C19.1872 31.44 18.9164 31.375 18.8011 31.3366C18.704 31.3042 18.7136 31.2911 18.7514 31.326L11.9686 38.674C14.1827 40.7178 16.9714 41.44 19.68 41.44V31.44ZM18.7514 31.326C18.7608 31.3347 18.7816 31.3562 18.804 31.3891C18.8265 31.4219 18.8383 31.4479 18.842 31.4574C18.8501 31.4778 18.8 31.3659 18.8 31.04H8.8C8.8 33.8316 9.71169 36.5907 11.9686 38.674L18.7514 31.326ZM18.8 31.04C18.8 30.7317 18.8475 30.2655 19.0107 29.6127L9.30929 27.1873C8.9925 28.4545 8.8 29.7482 8.8 31.04H18.8ZM18.9676 29.7736L22.0876 18.8536L12.4724 16.1064L9.35238 27.0264L18.9676 29.7736ZM22.0876 18.8536C22.6637 16.8372 23.1928 15.7884 23.5087 15.3462L15.3713 9.53381C14.0872 11.3316 13.1763 13.6428 12.4724 16.1064L22.0876 18.8536ZM23.6003 15.2135C23.7496 14.9894 23.9366 14.8116 24.3811 14.6634L21.2189 5.17658C18.7834 5.98839 16.7304 7.49058 15.2797 9.6665L23.6003 15.2135ZM24.5285 14.6117C25.2444 14.348 26.6853 14.08 29.16 14.08V4.08C26.1947 4.08 23.3956 4.37203 21.0715 5.22828L24.5285 14.6117ZM29.16 14.08H99.12V4.08H29.16V14.08ZM163.655 29.6L160.067 33.0824L160.093 33.1091L160.119 33.1355L163.655 29.6ZM167.255 43.88L162.404 42.6673L162.4 42.6813L162.397 42.6952L167.255 43.88ZM162.695 51.44L159.606 47.5084H159.606L162.695 51.44ZM147.695 51.92L144.256 55.5498L144.302 55.5937L144.35 55.6365L147.695 51.92ZM143.615 46.16L139.091 48.289L139.116 48.3428L139.143 48.3961L143.615 46.16ZM141.815 43.16L145.578 39.8675V39.8675L141.815 43.16ZM137.735 43.16L134.199 39.6245L134.081 39.7422L133.972 39.8675L137.735 43.16ZM136.175 46.52L140.953 47.9918L140.959 47.9743L140.964 47.9567L136.175 46.52ZM126.935 76.52L131.577 78.377L131.653 78.1871L131.713 77.9918L126.935 76.52ZM127.535 80.96L123.588 84.0297L123.779 84.2754L123.999 84.4955L127.535 80.96ZM130.055 82.88L132.828 78.7197L132.753 78.6693L132.675 78.6217L130.055 82.88ZM131.975 84.44L135.879 81.3165L131.975 84.44ZM132.335 86L137.277 86.7603L137.287 86.6904L137.296 86.6202L132.335 86ZM130.535 88.28L128.439 83.7402L128.368 83.7729L128.299 83.8079L130.535 88.28ZM90.3347 88.04L87.3347 92.04L87.3641 92.0621L87.3938 92.0837L90.3347 88.04ZM89.2547 85.28L84.5113 83.6989L84.4237 83.9616L84.3657 84.2324L89.2547 85.28ZM91.7747 82.76L94.1141 87.1789L94.1209 87.1754L94.1276 87.1718L91.7747 82.76ZM94.7747 80.48L91.075 77.1166L94.7747 80.48ZM96.8147 76.28L92.0361 74.8084L92.0252 74.8441L92.0147 74.88L96.8147 76.28ZM107.495 41.6L102.852 39.743L102.776 39.9329L102.716 40.1284L107.495 41.6ZM107.135 37.88L102.974 40.6535L103.123 40.8757L103.294 41.0809L107.135 37.88ZM105.455 36.08L108.8 32.3635L108.692 32.2664L108.578 32.1757L105.455 36.08ZM103.775 34.4L99.6144 37.1735L99.6144 37.1735L103.775 34.4ZM103.655 32.48L108.444 33.9167L108.47 33.8299L108.493 33.7421L103.655 32.48ZM111.215 27.68L112.644 32.4714L112.682 32.46L112.72 32.4479L111.215 27.68ZM133.655 27.8L130.777 31.889L130.829 31.9253L130.881 31.9602L133.655 27.8ZM137.855 34.04L132.988 35.1852L135.603 46.2987L141.997 36.8404L137.855 34.04ZM152.975 30.52C156.368 30.52 158.539 31.5079 160.067 33.0824L167.243 26.1176C163.491 22.2521 158.541 20.52 152.975 20.52V30.52ZM160.119 33.1355C161.861 34.8769 162.735 36.9471 162.735 39.68H172.735C172.735 34.4129 170.889 29.763 167.19 26.0645L160.119 33.1355ZM162.735 39.68C162.735 40.8517 162.611 41.8386 162.404 42.6673L172.105 45.0927C172.538 43.3614 172.735 41.5483 172.735 39.68H162.735ZM162.397 42.6952C161.811 45.0965 160.81 46.5623 159.606 47.5084L165.784 55.3716C169.06 52.7977 171.098 49.2235 172.112 45.0648L162.397 42.6952ZM159.606 47.5084C158.332 48.5093 156.768 49.08 154.655 49.08V59.08C158.782 59.08 162.578 57.8907 165.784 55.3716L159.606 47.5084ZM154.655 49.08C152.343 49.08 151.404 48.5313 151.04 48.2035L144.35 55.6365C147.186 58.1887 150.887 59.08 154.655 59.08V49.08ZM151.133 48.2902C150.137 47.346 149.096 45.9424 148.087 43.9239L139.143 48.3961C140.533 51.1776 142.213 53.614 144.256 55.5498L151.133 48.2902ZM148.139 44.031C147.427 42.5194 146.593 41.0278 145.578 39.8675L138.052 46.4525C138.157 46.5722 138.522 47.0805 139.091 48.289L148.139 44.031ZM145.578 39.8675C144.257 38.3585 142.321 37.2 139.895 37.2V47.2C139.483 47.2 139.057 47.1015 138.679 46.9121C138.319 46.7326 138.12 46.5308 138.052 46.4525L145.578 39.8675ZM139.895 37.2C137.59 37.2 135.643 38.181 134.199 39.6245L141.27 46.6955C141.22 46.7457 141.063 46.8857 140.785 47.0091C140.496 47.1376 140.183 47.2 139.895 47.2V37.2ZM133.972 39.8675C132.676 41.3484 131.911 43.3332 131.386 45.0833L140.964 47.9567C141.157 47.3114 141.328 46.8687 141.46 46.5856C141.602 46.28 141.636 46.2942 141.498 46.4525L133.972 39.8675ZM131.396 45.0482L122.156 75.0482L131.713 77.9918L140.953 47.9918L131.396 45.0482ZM122.292 74.663C121.772 75.9627 121.695 77.3341 121.695 78.32H131.695C131.695 78.2022 131.698 78.1107 131.702 78.0427C131.705 77.9742 131.71 77.9385 131.711 77.9308C131.712 77.9221 131.708 77.9563 131.692 78.0244C131.676 78.0909 131.642 78.2145 131.577 78.377L122.292 74.663ZM121.695 78.32C121.695 80.3083 122.251 82.3111 123.588 84.0297L131.481 77.8903C131.568 78.0018 131.633 78.129 131.669 78.244C131.704 78.3517 131.695 78.3896 131.695 78.32H121.695ZM123.999 84.4955C124.992 85.488 126.169 86.3598 127.434 87.1383L132.675 78.6217C131.86 78.1202 131.358 77.712 131.07 77.4245L123.999 84.4955ZM127.281 87.0403C127.678 87.3045 127.941 87.5 128.102 87.6306C128.139 87.6612 128.168 87.6851 128.187 87.7023C128.207 87.7196 128.216 87.7279 128.215 87.7274C128.215 87.7272 128.202 87.7146 128.179 87.6899C128.156 87.6655 128.118 87.6233 128.07 87.5635L135.879 81.3165C135.035 80.2609 133.817 79.3788 132.828 78.7197L127.281 87.0403ZM128.07 87.5635C127.742 87.1534 127.534 86.6934 127.433 86.2543C127.336 85.8372 127.355 85.5242 127.373 85.3798L137.296 86.6202C137.498 85.008 137.248 83.0283 135.879 81.3165L128.07 87.5635ZM127.393 85.2397C127.433 84.9818 127.559 84.6081 127.84 84.2518C128.11 83.9105 128.375 83.77 128.439 83.7402L132.63 92.8198C135.033 91.7108 136.836 89.6245 137.277 86.7603L127.393 85.2397ZM128.299 83.8079C128.495 83.7097 128.427 83.7875 127.848 83.8703C127.316 83.9463 126.547 84 125.495 84V94C127.939 94 130.671 93.8019 132.771 92.7521L128.299 83.8079ZM125.495 84H94.7747V94H125.495V84ZM94.7747 84C93.9683 84 93.4526 83.9359 93.1614 83.8729C92.8525 83.8062 92.9783 83.7802 93.2755 83.9963L87.3938 92.0837C89.613 93.6976 92.4589 94 94.7747 94V84ZM93.3347 84.04C93.4383 84.1177 93.7758 84.4128 94.0009 84.988C94.2324 85.5796 94.1956 86.0856 94.1437 86.3276L84.3657 84.2324C84.0738 85.5944 84.097 87.1204 84.6885 88.632C85.2735 90.1272 86.2711 91.2423 87.3347 92.04L93.3347 84.04ZM93.9981 86.8611C93.9383 87.0404 93.8636 87.1847 93.795 87.291C93.728 87.3951 93.6744 87.4513 93.6602 87.4655C93.6469 87.4788 93.6686 87.4549 93.7443 87.4012C93.8201 87.3475 93.9394 87.2715 94.1141 87.1789L89.4352 78.3411C87.5163 79.357 85.4059 81.015 84.5113 83.6989L93.9981 86.8611ZM94.1276 87.1718C95.7618 86.3002 97.2378 85.2036 98.4744 83.8434L91.075 77.1166C90.7115 77.5164 90.1876 77.9398 89.4217 78.3482L94.1276 87.1718ZM98.4744 83.8434C100.021 82.142 100.968 79.8956 101.615 77.68L92.0147 74.88C91.7924 75.6423 91.5756 76.1974 91.3871 76.5855C91.1952 76.9808 91.0729 77.1189 91.075 77.1166L98.4744 83.8434ZM101.593 77.7516L112.273 43.0716L102.716 40.1284L92.0361 74.8084L101.593 77.7516ZM112.137 43.457C112.64 42.1999 112.735 40.9067 112.735 39.92H102.735C102.735 40.0084 102.732 40.0736 102.729 40.1181C102.727 40.163 102.724 40.18 102.725 40.1729C102.726 40.1663 102.732 40.1256 102.749 40.0573C102.766 39.9895 102.797 39.8809 102.852 39.743L112.137 43.457ZM112.735 39.92C112.735 38.3416 112.379 36.3632 110.976 34.6791L103.294 41.0809C102.69 40.3568 102.735 39.7384 102.735 39.92H112.735ZM111.295 35.1065C110.624 34.0994 109.692 33.1664 108.8 32.3635L102.11 39.7965C102.433 40.0873 102.663 40.3144 102.819 40.4816C102.985 40.6587 103.013 40.7119 102.974 40.6535L111.295 35.1065ZM108.578 32.1757C108.283 31.9394 108.088 31.7627 107.97 31.6445C107.844 31.5178 107.859 31.5126 107.935 31.6265L99.6144 37.1735C100.359 38.2909 101.39 39.2312 102.331 39.9843L108.578 32.1757ZM107.935 31.6265C108.317 32.1991 108.466 32.7893 108.495 33.2481C108.521 33.6666 108.445 33.9127 108.444 33.9167L98.8656 31.0433C98.3956 32.6099 98.1496 34.9762 99.6144 37.1735L107.935 31.6265ZM108.493 33.7421C108.274 34.5818 107.808 34.6139 108.585 34.1211C109.296 33.6694 110.577 33.0879 112.644 32.4714L109.786 22.8886C107.293 23.632 105.033 24.5306 103.225 25.6789C101.481 26.786 99.5157 28.5382 98.8166 31.2179L108.493 33.7421ZM112.72 32.4479C116.775 31.1674 121.026 30.52 125.495 30.52V20.52C120.043 20.52 114.774 21.3126 109.709 22.9121L112.72 32.4479ZM125.495 30.52C127.996 30.52 129.644 31.0918 130.777 31.889L136.532 23.711C133.345 21.4682 129.553 20.52 125.495 20.52V30.52ZM130.881 31.9602C131.901 32.6404 132.614 33.5962 132.988 35.1852L142.722 32.8948C141.816 29.0438 139.728 25.8396 136.428 23.6397L130.881 31.9602ZM141.997 36.8404C145.015 32.3759 148.579 30.52 152.975 30.52V20.52C144.89 20.52 138.374 24.344 133.712 31.2396L141.997 36.8404ZM236.585 72.44L231.803 70.9784L231.765 71.102L231.734 71.2273L236.585 72.44ZM236.705 75.2L232.705 78.2L232.918 78.4843L233.169 78.7355L236.705 75.2ZM240.305 74.48L236.435 71.3138L236.417 71.3351L236.4 71.3565L240.305 74.48ZM242.705 74L238.109 75.9696L238.29 76.3915L238.544 76.7735L242.705 74ZM243.185 75.8H238.185V75.8893L238.188 75.9785L243.185 75.8ZM240.785 82.52L244.731 85.5897L244.758 85.5551L244.785 85.52L240.785 82.52ZM233.705 87.92L235.845 92.4387L233.705 87.92ZM212.225 87.2L215.052 83.0764L212.225 87.2ZM206.825 79.64L211.668 78.3981L209.35 69.3594L203.108 76.2952L206.825 79.64ZM197.225 86.96L199.333 91.4936L199.356 91.4831L199.378 91.4724L197.225 86.96ZM172.505 85.28L169.518 89.2902L169.566 89.3257L169.615 89.3601L172.505 85.28ZM168.065 66.68L172.808 68.2611L172.828 68.2028L172.846 68.144L168.065 66.68ZM175.745 41.6L171.001 40.0189L170.982 40.0772L170.964 40.136L175.745 41.6ZM175.505 37.76L171.436 40.6662L171.544 40.8178L171.664 40.9609L175.505 37.76ZM173.705 36.08L170.581 39.9843L170.706 40.0844L170.837 40.1762L173.705 36.08ZM172.025 34.4L167.864 37.1735V37.1735L172.025 34.4ZM171.905 32.48L176.694 33.9167L176.72 33.8299L176.743 33.7421L171.905 32.48ZM179.465 27.68L180.894 32.4714L180.932 32.46L180.97 32.4479L179.465 27.68ZM203.945 28.16L207.103 24.2838V24.2838L203.945 28.16ZM206.345 40.64L201.601 39.0589L201.579 39.1244L201.559 39.1906L206.345 40.64ZM198.785 65.6L203.484 67.3087L203.53 67.1802L203.57 67.0494L198.785 65.6ZM199.265 70.64L202.557 66.8771L202.557 66.8771L199.265 70.64ZM205.505 70.16L208.883 73.8458L205.505 70.16ZM208.385 65.72L212.924 67.8153L213.069 67.5021L213.169 67.172L208.385 65.72ZM215.705 41.6L210.961 40.0189L210.94 40.0831L210.92 40.148L215.705 41.6ZM215.465 37.76L211.396 40.6662L211.504 40.8178L211.624 40.9609L215.465 37.76ZM213.785 36.08L210.661 39.9843L210.688 40.0057L210.715 40.0268L213.785 36.08ZM212.105 34.4L207.944 37.1735V37.1735L212.105 34.4ZM211.985 32.48L216.774 33.9167L216.829 33.7313L216.871 33.5421L211.985 32.48ZM219.425 27.68L220.854 32.4714L220.892 32.46L220.93 32.4479L219.425 27.68ZM243.905 28.16L240.746 32.0362L240.781 32.0642L240.816 32.0916L243.905 28.16ZM246.305 40.64L241.526 39.1696L241.523 39.1784L246.305 40.64ZM231.734 71.2273C231.556 71.9378 231.345 72.9144 231.345 73.88H241.345C241.345 74.0018 241.337 74.082 241.335 74.1075C241.332 74.1358 241.331 74.1358 241.337 74.102C241.349 74.03 241.377 73.8856 241.435 73.6527L231.734 71.2273ZM231.345 73.88C231.345 75.0996 231.601 76.7287 232.705 78.2L240.705 72.2C241.328 73.0313 241.345 73.7804 241.345 73.88H231.345ZM233.169 78.7355C234.488 80.0545 236.188 80.68 237.905 80.68V70.68C238.228 70.68 238.647 70.7359 239.102 70.9176C239.562 71.1017 239.946 71.3703 240.24 71.6645L233.169 78.7355ZM237.905 80.68C240.497 80.68 242.694 79.4979 244.209 77.6035L236.4 71.3565C236.467 71.2736 236.654 71.0753 236.989 70.9079C237.333 70.7356 237.667 70.68 237.905 70.68V80.68ZM244.174 77.6462C244.477 77.2765 244.602 77.1585 244.583 77.1758C244.579 77.18 244.418 77.3311 244.127 77.5089C243.975 77.6019 243.716 77.7463 243.365 77.875C243.023 78.0004 242.461 78.16 241.745 78.16V68.16C240.304 68.16 239.269 68.7579 238.912 68.9761C238.441 69.2639 238.071 69.58 237.826 69.8042C237.327 70.2615 236.852 70.8035 236.435 71.3138L244.174 77.6462ZM241.745 78.16C240.653 78.16 239.681 77.7358 238.992 77.1329C238.4 76.6144 238.165 76.1008 238.109 75.9696L247.3 72.0304C246.743 70.7288 245.115 68.16 241.745 68.16V78.16ZM238.544 76.7735C238.195 76.2493 238.185 75.8217 238.185 75.8H248.185C248.185 74.3383 247.854 72.7107 246.865 71.2265L238.544 76.7735ZM238.188 75.9785C238.218 76.8151 237.954 77.9609 236.785 79.52L244.785 85.52C246.975 82.5991 248.312 79.2649 248.182 75.6215L238.188 75.9785ZM236.838 79.4503C235.736 80.867 234.056 82.2208 231.564 83.4013L235.845 92.4387C239.433 90.7392 242.473 88.493 244.731 85.5897L236.838 79.4503ZM231.564 83.4013C229.268 84.4888 226.612 85.08 223.505 85.08V95.08C227.917 95.08 232.061 94.2312 235.845 92.4387L231.564 83.4013ZM223.505 85.08C219.413 85.08 216.753 84.2423 215.052 83.0764L209.397 91.3236C213.297 93.9977 218.157 95.08 223.505 95.08V85.08ZM215.052 83.0764C213.192 81.8008 212.15 80.2778 211.668 78.3981L201.981 80.8819C203.099 85.2422 205.657 88.7592 209.397 91.3236L215.052 83.0764ZM203.108 76.2952C200.622 79.0579 197.94 81.0784 195.071 82.4476L199.378 91.4724C203.55 89.4816 207.268 86.6221 210.541 82.9848L203.108 76.2952ZM195.116 82.4264C192.3 83.7361 189.497 84.36 186.665 84.36V94.36C191.032 94.36 195.269 93.3839 199.333 91.4936L195.116 82.4264ZM186.665 84.36C181.899 84.36 178.239 83.2146 175.395 81.1999L169.615 89.3601C174.45 92.7854 180.231 94.36 186.665 94.36V84.36ZM175.491 81.2698C173.082 79.4755 171.865 77.1273 171.865 73.64H161.865C161.865 80.0727 164.408 85.4845 169.518 89.2902L175.491 81.2698ZM171.865 73.64C171.865 72.002 172.156 70.2164 172.808 68.2611L163.321 65.0989C162.373 67.9436 161.865 70.798 161.865 73.64H171.865ZM172.846 68.144L180.526 43.064L170.964 40.136L163.284 65.216L172.846 68.144ZM180.488 43.1811C180.811 42.2116 181.105 41.0363 181.105 39.8H171.105C171.105 39.7133 171.11 39.6552 171.113 39.6303C171.116 39.6051 171.117 39.6038 171.112 39.6294C171.101 39.6847 171.071 39.811 171.001 40.0189L180.488 43.1811ZM181.105 39.8C181.105 38.2216 180.749 36.2431 179.346 34.5591L171.664 40.9609C171.06 40.2368 171.105 39.6184 171.105 39.8H181.105ZM179.573 34.8538C178.737 33.6825 177.658 32.7442 176.572 31.9838L170.837 40.1762C171.081 40.3464 171.242 40.4813 171.343 40.5753C171.445 40.6701 171.462 40.703 171.436 40.6662L179.573 34.8538ZM176.828 32.1757C176.533 31.9394 176.338 31.7627 176.22 31.6445C176.094 31.5178 176.109 31.5126 176.185 31.6265L167.864 37.1735C168.609 38.2909 169.64 39.2312 170.581 39.9843L176.828 32.1757ZM176.185 31.6265C176.567 32.1991 176.716 32.7893 176.745 33.2481C176.771 33.6666 176.695 33.9127 176.694 33.9167L167.116 31.0433C166.646 32.6099 166.4 34.9762 167.864 37.1735L176.185 31.6265ZM176.743 33.7421C176.524 34.5818 176.058 34.6139 176.835 34.1211C177.546 33.6694 178.827 33.0879 180.894 32.4714L178.036 22.8886C175.543 23.632 173.283 24.5306 171.475 25.6789C169.731 26.786 167.766 28.5382 167.067 31.2179L176.743 33.7421ZM180.97 32.4479C185.025 31.1674 189.276 30.52 193.745 30.52V20.52C188.293 20.52 183.024 21.3126 177.959 22.9121L180.97 32.4479ZM193.745 30.52C197.938 30.52 199.943 31.3493 200.786 32.0362L207.103 24.2838C203.626 21.4507 198.831 20.52 193.745 20.52V30.52ZM200.786 32.0362C201.665 32.7523 202.185 33.6672 202.185 35.36H212.185C212.185 30.9728 210.544 27.0877 207.103 24.2838L200.786 32.0362ZM202.185 35.36C202.185 36.6838 201.985 37.9084 201.601 39.0589L211.088 42.2211C211.825 40.0116 212.185 37.7162 212.185 35.36H202.185ZM201.559 39.1906L193.999 64.1506L203.57 67.0494L211.13 42.0894L201.559 39.1906ZM194.086 63.8913C193.6 65.2275 193.305 66.6473 193.305 68.12H203.305C203.305 67.9927 203.33 67.7325 203.484 67.3087L194.086 63.8913ZM193.305 68.12C193.305 70.1972 193.929 72.6151 195.972 74.4029L202.557 66.8771C202.888 67.1661 203.103 67.5111 203.217 67.81C203.32 68.0791 203.305 68.2158 203.305 68.12H193.305ZM195.972 74.4029C197.715 75.9281 199.815 76.48 201.785 76.48V66.48C201.711 66.48 201.786 66.4699 201.956 66.5266C202.139 66.5877 202.357 66.7019 202.557 66.8771L195.972 74.4029ZM201.785 76.48C204.333 76.48 206.849 75.7104 208.883 73.8458L202.126 66.4742C202.13 66.4705 202.142 66.4606 202.16 66.45C202.177 66.4395 202.187 66.4362 202.183 66.4379C202.176 66.4403 202.062 66.48 201.785 66.48V76.48ZM208.883 73.8458C210.571 72.2992 211.866 70.1097 212.924 67.8153L203.845 63.6247C202.984 65.4903 202.359 66.2608 202.126 66.4742L208.883 73.8458ZM213.169 67.172L220.489 43.052L210.92 40.148L203.6 64.268L213.169 67.172ZM220.448 43.1811C220.771 42.2116 221.065 41.0363 221.065 39.8H211.065C211.065 39.7133 211.07 39.6552 211.073 39.6303C211.076 39.6051 211.077 39.6038 211.072 39.6294C211.061 39.6847 211.031 39.811 210.961 40.0189L220.448 43.1811ZM221.065 39.8C221.065 38.2216 220.709 36.2432 219.306 34.5591L211.624 40.9609C211.02 40.2368 211.065 39.6184 211.065 39.8H221.065ZM219.533 34.8538C218.778 33.7965 217.84 32.8997 216.854 32.1332L210.715 40.0268C211.17 40.3803 211.351 40.6035 211.396 40.6662L219.533 34.8538ZM216.908 32.1757C216.613 31.9394 216.418 31.7627 216.3 31.6445C216.174 31.5178 216.189 31.5126 216.265 31.6265L207.944 37.1735C208.689 38.2909 209.72 39.2312 210.661 39.9843L216.908 32.1757ZM216.265 31.6265C216.647 32.1991 216.796 32.7893 216.825 33.2481C216.851 33.6666 216.775 33.9127 216.774 33.9167L207.196 31.0432C206.726 32.6099 206.48 34.9762 207.944 37.1735L216.265 31.6265ZM216.871 33.5421C216.665 34.4856 216.115 34.579 216.855 34.1015C217.531 33.6653 218.786 33.0881 220.854 32.4714L217.996 22.8886C215.503 23.6319 213.238 24.5347 211.434 25.6985C209.694 26.821 207.704 28.6344 207.099 31.4179L216.871 33.5421ZM220.93 32.4479C224.985 31.1674 229.236 30.52 233.705 30.52V20.52C228.253 20.52 222.984 21.3126 217.919 22.9121L220.93 32.4479ZM233.705 30.52C237.898 30.52 239.903 31.3493 240.746 32.0362L247.063 24.2838C243.586 21.4507 238.791 20.52 233.705 20.52V30.52ZM240.816 32.0916C241.795 32.8614 242.265 33.7446 242.265 35.24H252.265C252.265 30.8154 250.494 26.9786 246.994 24.2284L240.816 32.0916ZM242.265 35.24C242.265 36.0976 242.077 37.3787 241.526 39.1696L251.084 42.1104C251.813 39.7413 252.265 37.4224 252.265 35.24H242.265ZM241.523 39.1784L231.803 70.9784L241.366 73.9016L251.086 42.1015L241.523 39.1784ZM304.21 26.24L302.998 31.0907L303.007 31.0931L303.016 31.0954L304.21 26.24ZM315.37 31.28L312.146 35.1015L312.175 35.1258L312.204 35.1498L315.37 31.28ZM315.97 45.44L312.881 41.5084L312.846 41.5358L312.812 41.5638L315.97 45.44ZM296.65 45.08L293.688 49.1083L293.716 49.1286L293.744 49.1487L296.65 45.08ZM293.05 34.52L297.794 36.1011L299.457 31.1104L294.389 29.7024L293.05 34.52ZM284.17 35.36L281.287 31.2752L281.228 31.3167L281.17 31.36L284.17 35.36ZM282.37 39.44H287.37V39.3264L287.365 39.213L282.37 39.44ZM295.57 50.12L293.46 54.6529L293.508 54.6753L293.557 54.6966L295.57 50.12ZM305.41 55.04L302.858 59.3393L302.936 59.3858L303.016 59.4295L305.41 55.04ZM312.01 60.56L308.079 63.6491L308.112 63.6918L308.147 63.7337L312.01 60.56ZM314.29 72.08L319.154 73.2414L319.185 73.1087L319.21 72.9744L314.29 72.08ZM303.61 84.8L301.254 80.3899L303.61 84.8ZM255.01 85.16L252.915 89.6998L252.926 89.7049L252.937 89.7099L255.01 85.16ZM267.25 66.56L263.935 70.3029L263.961 70.3261L263.988 70.3488L267.25 66.56ZM271.21 79.28L266.321 78.2324L265.309 82.9585L269.998 84.1307L271.21 79.28ZM281.89 78.32L285.069 82.1796L281.89 78.32ZM283.93 73.64H288.93V73.5314L288.926 73.4228L283.93 73.64ZM281.17 68.96L278.113 72.9164L278.171 72.9609L278.229 73.0037L281.17 68.96ZM272.77 64.16L274.931 59.6509L274.908 59.6399L274.885 59.6291L272.77 64.16ZM263.89 59.48L261.15 63.6623L261.201 63.6959L261.254 63.7282L263.89 59.48ZM257.89 53.84L253.822 56.7462L253.855 56.7935L253.89 56.84L257.89 53.84ZM263.65 30.32L266.534 34.4048L266.54 34.4007L266.545 34.3966L263.65 30.32ZM287.05 29.44C293.411 29.44 298.703 30.017 302.998 31.0907L305.423 21.3893C300.118 20.063 293.97 19.44 287.05 19.44V29.44ZM303.016 31.0954C307.491 32.1957 310.394 33.6236 312.146 35.1015L318.595 27.4585C315.226 24.6164 310.69 22.6843 305.404 21.3846L303.016 31.0954ZM312.204 35.1498C314.005 36.6233 314.33 37.751 314.33 38.6H324.33C324.33 34.009 322.016 30.2567 318.536 27.4102L312.204 35.1498ZM314.33 38.6C314.33 39.8348 313.939 40.6771 312.881 41.5084L319.059 49.3716C322.481 46.6829 324.33 42.9652 324.33 38.6H314.33ZM312.812 41.5638C311.846 42.3512 310.08 43.08 306.85 43.08V53.08C311.46 53.08 315.775 52.0488 319.129 49.3162L312.812 41.5638ZM306.85 43.08C303.718 43.08 301.377 42.3113 299.557 41.0113L293.744 49.1487C297.524 51.8486 301.983 53.08 306.85 53.08V43.08ZM299.612 41.0517C298.01 39.8736 297.57 38.7767 297.57 37.52H287.57C287.57 42.3433 289.851 46.2864 293.688 49.1083L299.612 41.0517ZM297.57 37.52C297.57 37.0023 297.648 36.5372 297.794 36.1011L288.307 32.9389C287.812 34.4228 287.57 35.9577 287.57 37.52H297.57ZM294.389 29.7024C292.648 29.219 290.905 28.92 289.21 28.92V38.92C289.756 38.92 290.572 39.021 291.712 39.3376L294.389 29.7024ZM289.21 28.92C286.39 28.92 283.649 29.608 281.287 31.2752L287.054 39.4448C287.412 39.192 288.031 38.92 289.21 38.92V28.92ZM281.17 31.36C278.417 33.4247 277.229 36.4511 277.375 39.667L287.365 39.213C287.359 39.0847 287.369 39.0238 287.37 39.017C287.37 39.0129 287.364 39.0524 287.335 39.1182C287.305 39.1855 287.265 39.2501 287.222 39.3029C287.181 39.3542 287.156 39.371 287.17 39.36L281.17 31.36ZM277.37 39.44C277.37 43.5263 279.547 46.6865 282.644 48.831L288.336 40.609C287.753 40.2049 287.531 39.9053 287.455 39.7764C287.398 39.6807 287.37 39.6016 287.37 39.44H277.37ZM282.644 48.831C285.089 50.5233 288.768 52.4684 293.46 54.6529L297.68 45.5871C293.093 43.4516 290.052 41.7967 288.336 40.609L282.644 48.831ZM293.557 54.6966C297.449 56.409 300.531 57.9581 302.858 59.3393L307.963 50.7407C305.169 49.0819 301.692 47.351 297.584 45.5434L293.557 54.6966ZM303.016 59.4295C305.094 60.5631 306.761 61.9717 308.079 63.6491L315.942 57.4709C313.74 54.6683 311.006 52.3969 307.805 50.6505L303.016 59.4295ZM308.147 63.7337C309.214 65.0332 309.77 66.5366 309.77 68.48H319.77C319.77 64.3434 318.486 60.5668 315.874 57.3863L308.147 63.7337ZM309.77 68.48C309.77 68.4634 309.766 68.6618 309.694 69.1992C309.628 69.6938 309.523 70.3503 309.371 71.1856L319.21 72.9744C319.52 71.2663 319.77 69.6378 319.77 68.48H309.77ZM309.427 70.9186C308.546 74.6076 306.11 77.7959 301.254 80.3899L305.966 89.2101C312.791 85.5641 317.475 80.2724 319.154 73.2414L309.427 70.9186ZM301.254 80.3899C296.387 82.9902 289.605 84.48 280.57 84.48V94.48C290.576 94.48 299.154 92.8498 305.966 89.2101L301.254 80.3899ZM280.57 84.48C270.216 84.48 262.496 83.0764 257.084 80.6101L252.937 89.7099C260.165 93.0036 269.485 94.48 280.57 94.48V84.48ZM257.106 80.6202C251.878 78.2077 250.65 75.654 250.65 73.28H240.65C240.65 80.986 245.662 86.3523 252.915 89.6998L257.106 80.6202ZM250.65 73.28C250.65 70.893 251.327 69.8666 252 69.2969L245.541 61.6631C242.054 64.6134 240.65 68.787 240.65 73.28H250.65ZM252 69.2969C252.96 68.4843 254.474 67.84 257.05 67.84V57.84C252.747 57.84 248.74 58.9557 245.541 61.6631L252 69.2969ZM257.05 67.84C259.921 67.84 262.116 68.692 263.935 70.3029L270.565 62.8171C266.784 59.468 262.18 57.84 257.05 57.84V67.84ZM263.988 70.3488C265.752 71.8677 266.57 73.6383 266.57 76.04H276.57C276.57 70.7617 274.509 66.2123 270.513 62.7712L263.988 70.3488ZM266.57 76.04C266.57 76.6944 266.495 77.4224 266.321 78.2324L276.099 80.3276C276.406 78.8976 276.57 77.4656 276.57 76.04H266.57ZM269.998 84.1307C272.266 84.6978 274.514 85 276.73 85V75C275.426 75 273.995 74.8222 272.423 74.4293L269.998 84.1307ZM276.73 85C279.751 85 282.658 84.1651 285.069 82.1796L278.712 74.4604C278.403 74.7149 277.87 75 276.73 75V85ZM285.069 82.1796C287.747 79.9743 288.93 76.9069 288.93 73.64H278.93C278.93 74.0714 278.858 74.2629 278.837 74.3121C278.823 74.3435 278.805 74.3832 278.712 74.4604L285.069 82.1796ZM288.926 73.4228C288.767 69.7767 286.853 66.9104 284.111 64.9163L278.229 73.0037C278.665 73.3207 278.824 73.5457 278.873 73.6299C278.91 73.6915 278.93 73.7417 278.935 73.8572L288.926 73.4228ZM284.228 65.0036C282.04 63.3135 278.856 61.5317 274.931 59.6509L270.61 68.6691C274.365 70.4682 276.78 71.8865 278.113 72.9164L284.228 65.0036ZM274.885 59.6291C271.391 57.9989 268.622 56.5321 266.527 55.2318L261.254 63.7282C263.799 65.3079 266.949 66.9611 270.656 68.6909L274.885 59.6291ZM266.63 55.2977C264.801 54.0988 263.226 52.6203 261.89 50.84L253.89 56.84C255.915 59.5397 258.34 61.8212 261.15 63.6623L266.63 55.2977ZM261.959 50.9338C261.028 49.6301 260.49 48.0319 260.49 45.92H250.49C250.49 49.8881 251.553 53.5699 253.822 56.7462L261.959 50.9338ZM260.49 45.92C260.49 41.0136 262.397 37.3248 266.534 34.4048L260.767 26.2352C254.023 30.9952 250.49 37.7064 250.49 45.92H260.49ZM266.545 34.3966C270.898 31.3058 277.527 29.44 287.05 29.44V19.44C276.413 19.44 267.443 21.4942 260.755 26.2434L266.545 34.3966ZM375.823 28.04L372.7 31.9443L372.789 32.0161L372.882 32.0837L375.823 28.04ZM376.903 32.36L381.698 33.7767L381.762 33.5611L381.806 33.3406L376.903 32.36ZM362.743 37.64V32.64H359.036L357.959 36.1873L362.743 37.64ZM353.743 67.28L358.487 68.8611L358.508 68.7972L358.527 68.7327L353.743 67.28ZM354.343 74L357.21 69.9038L354.343 74ZM362.503 74.36L363.325 79.292L363.522 79.2591L363.716 79.2107L362.503 74.36ZM366.223 74.6L361.936 77.1725L362.252 77.7003L362.688 78.1355L366.223 74.6ZM366.703 75.92H361.703V76.0449L361.709 76.1697L366.703 75.92ZM363.103 81.8L366.515 85.4553L366.519 85.4514L363.103 81.8ZM353.263 87.68L355.058 92.3467L355.097 92.3318L355.135 92.3162L353.263 87.68ZM326.383 86.36L329.399 82.3717L326.383 86.36ZM322.423 70.4L327.146 72.0426L327.164 71.9904L327.181 71.9378L322.423 70.4ZM330.103 46.64L334.861 48.1778L334.881 48.1146L334.9 48.0508L330.103 46.64ZM329.503 39.32L325.297 42.0238L325.363 42.1267L325.434 42.2262L329.503 39.32ZM326.383 35.84L322.972 39.4953L323.023 39.543L323.075 39.5892L326.383 35.84ZM323.863 33.08L319.576 35.6525L319.637 35.7545L319.703 35.8535L323.863 33.08ZM323.503 30.32L318.724 28.8496L318.671 29.021L318.631 29.1957L323.503 30.32ZM325.543 27.92L327.914 32.3224L327.914 32.3223L325.543 27.92ZM337.183 27.08V32.08H339.254L340.719 30.6155L337.183 27.08ZM344.743 19.52L341.208 15.9845L344.743 19.52ZM351.943 14L349.838 9.46495L349.806 9.47975L349.774 9.49499L351.943 14ZM367.663 21.56L362.884 20.0896L362.882 20.0969L362.88 20.1042L367.663 21.56ZM365.983 27.08L361.2 25.6242L359.235 32.08H365.983V27.08ZM372.343 32.08C372.766 32.08 372.973 32.126 373.023 32.14C373.062 32.1507 372.913 32.1154 372.7 31.9443L378.947 24.1357C376.921 22.5149 374.47 22.08 372.343 22.08V32.08ZM372.882 32.0837C372.744 31.9833 372.516 31.766 372.341 31.4161C372.169 31.0712 372.143 30.7882 372.143 30.68H382.143C382.143 28.0157 380.982 25.6093 378.764 23.9963L372.882 32.0837ZM372.143 30.68C372.143 30.5643 372.15 30.5008 372.149 30.5123C372.148 30.5176 372.144 30.5554 372.133 30.6329C372.111 30.7911 372.069 31.0343 372 31.3794L381.806 33.3406C381.961 32.5633 382.143 31.5555 382.143 30.68H372.143ZM372.108 30.9433C371.824 31.9039 371.494 32.194 371.366 32.288C371.227 32.3904 370.802 32.64 369.703 32.64V42.64C372.364 42.64 375.02 42.0096 377.28 40.352C379.552 38.686 380.942 36.3361 381.698 33.7767L372.108 30.9433ZM369.703 32.64H362.743V42.64H369.703V32.64ZM357.959 36.1873L348.959 65.8273L358.527 68.7327L367.527 39.0927L357.959 36.1873ZM349 65.6989C348.428 67.4148 348.143 69.1891 348.143 71H358.143C358.143 70.2509 358.259 69.5452 358.487 68.8611L349 65.6989ZM348.143 71C348.143 73.2533 348.786 76.2132 351.476 78.0962L357.21 69.9038C357.688 70.2385 357.963 70.6664 358.086 70.973C358.187 71.226 358.143 71.286 358.143 71H348.143ZM351.476 78.0962C353.429 79.4632 355.7 79.84 357.703 79.84V69.84C357.296 69.84 357.076 69.7993 356.996 69.7793C356.923 69.7611 357.027 69.7758 357.21 69.9038L351.476 78.0962ZM357.703 79.84C359.361 79.84 361.258 79.6365 363.325 79.292L361.681 69.428C359.908 69.7235 358.605 69.84 357.703 69.84V79.84ZM363.716 79.2107C364.416 79.0358 364.832 79 365.023 79V69C363.774 69 362.511 69.2042 361.29 69.5093L363.716 79.2107ZM365.023 79C364.718 79 364.154 78.9457 363.507 78.6221C362.819 78.278 362.283 77.751 361.936 77.1725L370.511 72.0275C369.173 69.7985 366.927 69 365.023 69V79ZM362.688 78.1355C362.313 77.7609 362.045 77.3209 361.884 76.8787C361.73 76.4554 361.703 76.1115 361.703 75.92H371.703C371.703 74.3676 371.229 72.5343 369.759 71.0645L362.688 78.1355ZM361.709 76.1697C361.682 75.615 361.892 75.5006 361.599 75.9792C361.317 76.4404 360.74 77.1642 359.687 78.1486L366.519 85.4514C367.947 84.1158 369.21 82.6996 370.127 81.2008C371.034 79.7194 371.805 77.825 371.697 75.6703L361.709 76.1697ZM359.692 78.1447C357.872 79.8434 355.177 81.5149 351.391 83.0438L355.135 92.3162C359.67 90.4851 363.535 88.2366 366.515 85.4553L359.692 78.1447ZM351.468 83.0133C347.951 84.3661 343.969 85.08 339.463 85.08V95.08C345.037 95.08 350.255 94.1939 355.058 92.3467L351.468 83.0133ZM339.463 85.08C334.761 85.08 331.567 84.0114 329.399 82.3717L323.368 90.3483C327.759 93.6686 333.285 95.08 339.463 95.08V85.08ZM329.399 82.3717C327.441 80.8912 326.463 79.0056 326.463 76.16H316.463C316.463 81.9544 318.766 86.8688 323.368 90.3483L329.399 82.3717ZM326.463 76.16C326.463 74.7041 326.694 73.3404 327.146 72.0426L317.701 68.7574C316.872 71.1396 316.463 73.6159 316.463 76.16H326.463ZM327.181 71.9378L334.861 48.1778L325.345 45.1022L317.665 68.8622L327.181 71.9378ZM334.9 48.0508C335.348 46.5277 335.703 44.9099 335.703 43.4H325.703C325.703 43.3951 325.703 43.4337 325.694 43.5236C325.684 43.6123 325.667 43.7363 325.637 43.8996C325.575 44.2306 325.471 44.6693 325.306 45.2292L334.9 48.0508ZM335.703 43.4C335.703 40.9327 335.072 38.5138 333.572 36.4138L325.434 42.2262C325.534 42.3662 325.703 42.6673 325.703 43.4H335.703ZM333.709 36.6162C332.668 34.9965 331.281 33.4939 329.691 32.0908L323.075 39.5892C324.205 40.5861 324.898 41.4035 325.297 42.0238L333.709 36.6162ZM329.795 32.1847C328.673 31.1381 328.175 30.5345 328.023 30.3065L319.703 35.8535C320.511 37.0655 321.693 38.3018 322.972 39.4953L329.795 32.1847ZM328.151 30.5075C328.262 30.6932 328.342 30.9182 328.371 31.1433C328.399 31.3557 328.369 31.4699 328.375 31.4443L318.631 29.1957C318.145 31.3009 318.333 33.5809 319.576 35.6525L328.151 30.5075ZM328.282 31.7904C328.25 31.8953 328.179 32.042 328.063 32.1782C327.952 32.3081 327.874 32.344 327.914 32.3224L323.173 23.5176C321.085 24.6419 319.466 26.4403 318.724 28.8496L328.282 31.7904ZM327.914 32.3223C327.805 32.381 327.909 32.3016 328.395 32.2187C328.86 32.1392 329.535 32.08 330.463 32.08V22.08C328.013 22.08 325.339 22.351 323.173 23.5176L327.914 32.3223ZM330.463 32.08H337.183V22.08H330.463V32.08ZM340.719 30.6155L348.279 23.0555L341.208 15.9845L333.648 23.5445L340.719 30.6155ZM348.279 23.0555C350.717 20.617 352.66 19.2043 354.112 18.505L349.774 9.49499C346.906 10.8757 344.049 13.143 341.208 15.9845L348.279 23.0555ZM354.049 18.535C355.41 17.9028 357.503 17.44 360.583 17.44V7.44C356.623 7.44 352.956 8.01718 349.838 9.46495L354.049 18.535ZM360.583 17.44C361.542 17.44 362.214 17.533 362.66 17.6462C363.099 17.7577 363.237 17.8675 363.223 17.8572C363.182 17.8262 363.118 17.7492 363.09 17.6841C363.074 17.6485 363.143 17.7807 363.143 18.2H373.143C373.143 15.0893 372.052 12.0122 369.283 9.90284C366.772 7.98931 363.596 7.44 360.583 7.44V17.44ZM363.143 18.2C363.143 18.9523 363.043 19.5722 362.884 20.0896L372.442 23.0304C372.923 21.4678 373.143 19.8476 373.143 18.2H363.143ZM362.88 20.1042L361.2 25.6242L370.767 28.5358L372.447 23.0158L362.88 20.1042ZM365.983 32.08H372.343V22.08H365.983V32.08Z" fill="white"/>
</g>
<defs>
<filter id="filter0_d" x="0.800049" y="0.0800018" width="389.343" height="107" filterUnits="userSpaceOnUse" color-interpolation-filters="sRGB">
<feFlood flood-opacity="0" result="BackgroundImageFix"/>
<feColorMatrix in="SourceAlpha" type="matrix" values="0 0 0 0 0 0 0 0 0 0 0 0 0 0 0 0 0 0 127 0" result="hardAlpha"/>
<feOffset dy="4"/>
<feGaussianBlur stdDeviation="4"/>
<feColorMatrix type="matrix" values="0 0 0 0 0 0 0 0 0 0 0 0 0 0 0 0 0 0 0.25 0"/>
<feBlend mode="normal" in2="BackgroundImageFix" result="effect1_dropShadow"/>
<feBlend mode="normal" in="SourceGraphic" in2="effect1_dropShadow" result="shape"/>
</filter>
</defs>
</svg>
